# xmcd
#
# Track frame offsets: 
#        150
#        13981
#        27765
#        41605
#        55210
#        68177
#        80586
#        93198
#        106072
#        118610
#        131595
#        145472
#        158378
#        172235
#        184383
#        198165
#        212059
#        223650
#        237565
#        252668
#        266911
#        279575
#        293754
#        308648
#        321304
#
# Disc length: 4618 seconds
#
# Revision: 0
# Processed by: cddbd v1.5.2PL0 Copyright (c) Steve Scherf et al.
# Submitted via: ExactAudioCopyFreeDBPlugin 1.0
#
DISCID=7f120819
DTITLE=Various Artist - The Rough Guide To Holy Blues
DYEAR=2017
DGENRE=Blues
TTITLE0=Rev. Gary Davis - The Angel's Message To Me
TTITLE1=Blind Willie Johnson - Lord I Just Can't Keep From Crying
TTITLE2=Bukka White - I Am In The Heavenly Way
TTITLE3=Skip James - Jesus Is A Mighty Good Leader
TTITLE4=Blind Roosevelt Graves and Brother - Woke Up This Morning (With 
TTITLE4=My Mind On Jesus)
TTITLE5=Blind Willie and Kate McTell - God Don't Like It
TTITLE6=Mississippi John Hurt - Blessed Be The Name
TTITLE7=Blind Joe Taggart - God's Gonna Separate The Wheat From The Ta
TTITLE7=res
TTITLE8=Blind Lemon Jefferson - He Arose From The Dead
TTITLE9=Rev. Edward W. Clayborn - This Time Another Year You May Be Go
TTITLE9=ne
TTITLE10=Bull City Red - I Saw The Light
TTITLE11=Charley Patton and Bertha Lee - Oh Death
TTITLE12=Josh White - Jesus Gonna Make Up My Dying Bed
TTITLE13=Blind Mamie Forehand - Honey In The Rock
TTITLE14=Barbecue Bob - Jesus' Blood Can Make Me Whole
TTITLE15=Blind Willie Davis - I Believe I'll Go Back Home
TTITLE16=Mother McCollum - You Can't Hide
TTITLE17=Jaybird Coleman - I'm Gonna Cross The River Of Jordan - Some 
TTITLE17=O' These Days
TTITLE18=Blind Gussie Nesbit - Pure Religion
TTITLE19=Louis Washington - Run Sinner Run
TTITLE20=Blind Boy Fuller - Precious Lord
TTITLE21=Eddie Head and His Family - Lord I'm The True Vine
TTITLE22=Lil McClintock - Sow Good Seeds
TTITLE23=Sam Collins - I Want To Be Like Jesus In My Heart
TTITLE24=Washington Phillips - Denomination Blues - Parts 1 and 2
EXTD=
EXTT0=
EXTT1=
EXTT2=
EXTT3=
EXTT4=
EXTT5=
EXTT6=
EXTT7=
EXTT8=
EXTT9=
EXTT10=
EXTT11=
EXTT12=
EXTT13=
EXTT14=
EXTT15=
EXTT16=
EXTT17=
EXTT18=
EXTT19=
EXTT20=
EXTT21=
EXTT22=
EXTT23=
EXTT24=
PLAYORDER=
